HIERARCHY
ROOT Pelvis
{
	OFFSET 0.000000 0.000000 0.000000
	CHANNELS 6 Xposition Yposition Zposition Xrotation Yrotation Zrotation
	JOINT LeftUpLeg_virtual
	{
		OFFSET 0.000000 0.000000 0.000000
		CHANNELS 3 Xrotation Yrotation Zrotation
		JOINT LeftUpLeg
		{
			OFFSET 8.479700 -4.795502 -0.379100
			CHANNELS 3 Xrotation Yrotation Zrotation
			JOINT LeftLeg
			{
				OFFSET 0.024144 -32.555107 0.112900
				CHANNELS 3 Xrotation Yrotation Zrotation
				JOINT LeftFoot
				{
					OFFSET -0.024144 -32.638630 -3.012600
					CHANNELS 3 Xrotation Yrotation Zrotation
					JOINT LeftToeBase
					{
						OFFSET 0.970200 -13.225400 11.864200
						CHANNELS 3 Xrotation Yrotation Zrotation
						End Site
						{
							OFFSET 0 0 0
						}
					}
				}
			}
		}
	}
	JOINT RightUpLeg_virtual
	{
		OFFSET 0.000000 0.000000 0.000000
		CHANNELS 3 Xrotation Yrotation Zrotation
		JOINT RightUpLeg
		{
			OFFSET -8.479700 -4.795502 -0.379100
			CHANNELS 3 Xrotation Yrotation Zrotation
			JOINT RightLeg
			{
				OFFSET -0.023144 -32.555092 0.112900
				CHANNELS 3 Xrotation Yrotation Zrotation
				JOINT RightFoot
				{
					OFFSET 0.023144 -32.638641 -3.012700
					CHANNELS 3 Xrotation Yrotation Zrotation
					JOINT RightToeBase
					{
						OFFSET -0.970200 -13.225400 11.864200
						CHANNELS 3 Xrotation Yrotation Zrotation
						End Site
						{
							OFFSET 0 0 0
						}
					}
				}
			}
		}
	}
	JOINT Hips_virtual
	{
		OFFSET 0.000000 0.000000 0.000000
		CHANNELS 3 Xrotation Yrotation Zrotation
		JOINT Hips
		{
			OFFSET -0.000000 -0.000000 -0.000000
			CHANNELS 3 Xrotation Yrotation Zrotation
			JOINT Spine
			{
				OFFSET 0.000000 7.722000 1.166200
				CHANNELS 3 Xrotation Yrotation Zrotation
				JOINT Spine1
				{
					OFFSET 0.000000 12.024101 0.248800
					CHANNELS 3 Xrotation Yrotation Zrotation
					JOINT Spine2
					{
						OFFSET 0.000000 11.502998 -0.491200
						CHANNELS 3 Xrotation Yrotation Zrotation
						JOINT Neck_virtual
						{
							OFFSET 0.000000 0.000000 0.000000
							CHANNELS 3 Xrotation Yrotation Zrotation
							JOINT Neck
							{
								OFFSET 0.000000 18.430702 -3.123100
								CHANNELS 3 Xrotation Yrotation Zrotation
								JOINT Head
								{
									OFFSET 0.000000 9.051102 1.034000
									CHANNELS 3 Xrotation Yrotation Zrotation
									End Site
									{
										OFFSET 0 0 0
									}
								}
							}
						}
						JOINT LeftShoulder_virtual
						{
							OFFSET 0.000000 0.000000 0.000000
							CHANNELS 3 Xrotation Yrotation Zrotation
							JOINT LeftShoulder
							{
								OFFSET 6.197800 13.665199 -4.064700
								CHANNELS 3 Xrotation Yrotation Zrotation
								JOINT LeftArm
								{
									OFFSET 7.778100 -0.187103 -1.709300
									CHANNELS 3 Xrotation Yrotation Zrotation
									JOINT LeftForeArm
									{
										OFFSET 22.049376 0.000000 0.000000
										CHANNELS 3 Xrotation Yrotation Zrotation
										JOINT LeftHand
										{
											OFFSET 23.009392 0.000000 0.000000
											CHANNELS 3 Xrotation Yrotation Zrotation
											End Site
											{
												OFFSET 0 0 0
											}
										}
									}
								}
							}
						}
						JOINT RightShoulder_virtual
						{
							OFFSET 0.000000 0.000000 0.000000
							CHANNELS 3 Xrotation Yrotation Zrotation
							JOINT RightShoulder
							{
								OFFSET -6.197800 13.665199 -4.064700
								CHANNELS 3 Xrotation Yrotation Zrotation
								JOINT RightArm
								{
									OFFSET -7.778100 -0.187103 -1.709300
									CHANNELS 3 Xrotation Yrotation Zrotation
									JOINT RightForeArm
									{
										OFFSET -22.049376 0.000000 0.000000
										CHANNELS 3 Xrotation Yrotation Zrotation
										JOINT RightHand
										{
											OFFSET -23.009392 0.000000 0.000000
											CHANNELS 3 Xrotation Yrotation Zrotation
											End Site
											{
												OFFSET 0 0 0
											}
										}
									}
								}
							}
						}
					}
				}
			}
		}
	}
}
MOTION
Frames: 11
Frame Time: 0.03333333
0.104461 76.947876 0.608334 0.000000 0.000000 0.000000 5.323496 -6.839446 -1.284905 -42.672478 6.368206 20.560835 60.971712 8.608206 -1.591286 13.447861 6.580144 -11.651087 0.000000 0.000000 0.000000 5.323496 -6.839446 -1.284905 -31.924000 -6.195661 4.819690 43.997855 -1.400513 -1.003290 -19.441867 -5.594996 -3.990623 0.000000 0.000000 0.000000 5.323496 -6.839446 -1.284905 0.000000 0.000000 0.000000 9.156533 3.432575 5.193443 6.474934 1.246102 1.050139 0.000000 0.000000 0.000000 6.471418 1.202600 1.091237 2.140437 -0.614931 -1.384965 0.000000 0.000000 0.000000 6.471418 1.202600 1.091237 1.724438 -9.915036 -14.934999 -25.063144 2.043297 -69.542179 -0.000008 -31.031284 -0.000010 0.000000 0.000000 0.000000 6.471418 1.202600 1.091237 4.830916 17.858061 5.566076 -15.198224 0.576450 66.754984 0.000000 21.881886 0.000022 0.000000 0.000000 0.000000 
0.075033 77.002304 0.641502 0.000000 0.000000 0.000000 5.344159 -6.850842 -1.047774 -43.193037 7.636180 20.962663 60.523426 9.175329 -1.607611 13.406899 5.208190 -11.084355 0.000000 0.000000 0.000000 5.344159 -6.850842 -1.047774 -31.938572 -6.129732 4.562050 43.888572 -1.712908 -1.000759 -19.293881 -5.206848 -3.854230 0.000000 0.000000 0.000000 5.344159 -6.850842 -1.047774 0.000000 0.000000 0.000000 9.149238 3.442692 5.184187 6.470722 1.252375 1.050137 0.000000 0.000000 0.000000 6.467349 1.205347 1.091236 2.140431 -0.627687 -1.373676 0.000000 0.000000 0.000000 6.467349 1.205347 1.091236 1.719466 -9.903873 -14.934629 -24.909461 1.975395 -69.518499 0.000004 -31.046249 -0.000002 0.000000 0.000000 0.000000 6.467349 1.205347 1.091236 4.818721 17.839438 5.583533 -15.265580 -0.058694 66.673814 0.000004 21.871309 -0.000007 0.000000 0.000000 0.000000 
0.032147 77.069901 0.739548 0.000000 0.000000 0.000000 5.370920 -6.835762 -0.727443 -43.470367 8.117215 20.261662 59.982892 9.613138 -1.625196 12.940046 3.824631 -10.474081 0.000000 0.000000 0.000000 5.370920 -6.835762 -0.727443 -31.859800 -6.014075 4.231702 43.823180 -2.057937 -0.996052 -19.355429 -4.797269 -3.702803 0.000000 0.000000 0.000000 5.370920 -6.835762 -0.727443 0.000000 0.000000 0.000000 9.127330 3.466605 5.163877 6.458227 1.270575 1.050138 0.000000 0.000000 0.000000 6.454845 1.219981 1.086653 2.140428 -0.658715 -1.366249 0.000000 0.000000 0.000000 6.454845 1.219981 1.086653 1.707815 -9.871293 -14.933502 -24.720369 1.875862 -69.543367 -0.000023 -31.071815 -0.000051 0.000000 0.000000 0.000000 6.454845 1.219981 1.086653 4.783131 17.784940 5.634553 -15.255337 -0.757018 66.514486 -0.000000 21.916144 0.000003 0.000000 0.000000 0.000000 
-0.022937 77.155869 0.896770 0.000000 0.000000 0.000000 5.402276 -6.796323 -0.334277 -43.682331 8.867904 19.114621 59.195699 9.638058 -1.644754 11.935435 2.491497 -9.810916 0.000000 0.000000 0.000000 5.402276 -6.796323 -0.334277 -31.723056 -5.856382 3.837468 43.735860 -2.429736 -0.990321 -19.466908 -4.377231 -3.535807 0.000000 0.000000 0.000000 5.402276 -6.796323 -0.334277 0.000000 0.000000 0.000000 9.091559 3.500596 5.125056 6.437242 1.301644 1.047209 0.000000 0.000000 0.000000 6.434238 1.243749 1.079201 2.140440 -0.705677 -1.362459 0.000000 0.000000 0.000000 6.434238 1.243749 1.079201 1.689945 -9.818010 -14.926641 -24.496730 1.749451 -69.601485 0.000003 -31.094829 0.000001 0.000000 0.000000 0.000000 6.434238 1.243749 1.079201 4.725667 17.696578 5.717013 -15.174705 -1.505993 66.289909 -0.000005 21.983645 -0.000004 0.000000 0.000000 0.000000 
-0.085209 77.261002 1.109732 0.000000 0.000000 0.000000 5.436667 -6.735092 0.120533 -43.712022 9.656022 17.842344 57.986899 9.585528 -1.664113 10.562327 1.279812 -9.115829 0.000000 0.000000 0.000000 5.436667 -6.735092 0.120533 -31.523044 -5.662452 3.390177 43.612947 -2.823829 -0.983743 -19.617003 -3.951414 -3.354830 0.000000 0.000000 0.000000 5.436667 -6.735092 0.120533 0.000000 0.000000 0.000000 9.042779 3.541504 5.066084 6.408333 1.343090 1.038724 0.000000 0.000000 0.000000 6.405866 1.274518 1.063853 2.140433 -0.766234 -1.362488 0.000000 0.000000 0.000000 6.405866 1.274518 1.063853 1.665944 -9.745068 -14.916925 -24.239262 1.601052 -69.677137 -0.000005 -31.120872 -0.000012 0.000000 0.000000 0.000000 6.405866 1.274518 1.063853 4.647962 17.576319 5.828750 -15.030456 -2.293394 66.012966 -0.000001 22.078576 0.000008 0.000000 0.000000 0.000000 
-0.150121 77.378723 1.376688 0.000000 0.000000 0.000000 5.472611 -6.665188 0.618019 -43.679797 10.290388 16.667627 56.261955 9.352840 -1.680455 9.267218 0.305726 -8.378736 0.000000 0.000000 0.000000 5.472611 -6.665188 0.618019 -31.266004 -5.439796 2.900610 43.468632 -3.225850 -0.976727 -19.808124 -3.524877 -3.156360 0.000000 0.000000 0.000000 5.472611 -6.665188 0.618019 0.000000 0.000000 0.000000 8.981283 3.590364 4.991407 6.371679 1.394207 1.027219 0.000000 0.000000 0.000000 6.369872 1.312749 1.043855 2.140429 -0.838051 -1.364911 0.000000 0.000000 0.000000 6.369872 1.312749 1.043855 1.636345 -9.653414 -14.904286 -23.948592 1.435603 -69.754926 -0.000010 -31.147524 -0.000022 0.000000 0.000000 0.000000 6.369872 1.312749 1.043855 4.551739 17.426119 5.967518 -14.828534 -3.107086 65.696694 0.000005 22.200212 -0.000010 0.000000 0.000000 0.000000 
-0.216926 77.503143 1.694656 0.000000 0.000000 0.000000 5.508592 -6.585119 1.136665 -43.703747 10.939080 15.282582 54.215101 8.906901 -1.688776 8.035149 -0.004545 -7.220911 0.000000 0.000000 0.000000 5.508592 -6.585119 1.136665 -30.954817 -5.200172 2.389108 43.310202 -3.637387 -0.969614 -20.040759 -3.101752 -2.941549 0.000000 0.000000 0.000000 5.508592 -6.585119 1.136665 0.000000 0.000000 0.000000 8.907295 3.647984 4.906743 6.327512 1.454022 1.012417 0.000000 0.000000 0.000000 6.326464 1.357848 1.019104 2.140433 -0.918788 -1.370701 0.000000 0.000000 0.000000 6.326464 1.357848 1.019104 1.601744 -9.544016 -14.888627 -23.625377 1.258197 -69.819314 0.000007 -31.187511 0.000012 0.000000 0.000000 0.000000 6.326464 1.357848 1.019104 4.438753 17.247904 6.131083 -14.574169 -3.934998 65.353955 0.000000 22.347035 0.000017 0.000000 0.000000 0.000000 
-0.282677 77.628983 2.061504 0.000000 0.000000 0.000000 5.543313 -6.500583 1.658008 -43.937371 11.455283 13.850670 51.599941 8.147428 -1.684209 7.326725 -0.007693 -5.447168 0.000000 0.000000 0.000000 5.543313 -6.500583 1.658008 -30.589948 -4.952505 1.870289 43.145697 -4.051142 -0.962482 -20.321541 -2.686620 -2.710100 0.000000 0.000000 0.000000 5.543313 -6.500583 1.658008 0.000000 0.000000 0.000000 8.821217 3.715748 4.815237 6.276075 1.521568 0.994052 0.000000 0.000000 0.000000 6.275884 1.409222 0.989476 2.140434 -1.006107 -1.379239 0.000000 0.000000 0.000000 6.275884 1.409222 0.989476 1.562668 -9.417817 -14.869861 -23.270325 1.073920 -69.854585 0.000003 -31.221590 0.000031 0.000000 0.000000 0.000000 6.275884 1.409222 0.989476 4.310768 17.043584 6.317163 -14.271580 -4.765122 64.997815 0.000003 22.516400 -0.000024 0.000000 0.000000 0.000000 
-0.348524 77.761627 2.470343 0.000000 0.000000 0.000000 5.575512 -6.432758 2.176048 -43.619965 11.889852 12.433810 48.589614 7.198679 -1.668565 6.544913 -0.016896 -4.000312 0.000000 0.000000 0.000000 5.575512 -6.432758 2.176048 -30.162853 -4.702699 1.354102 42.941375 -4.442253 -0.956174 -20.619187 -2.282849 -2.473479 0.000000 0.000000 0.000000 5.575512 -6.432758 2.176048 0.000000 0.000000 0.000000 8.723997 3.783281 4.711770 6.217597 1.595875 0.971854 0.000000 0.000000 0.000000 6.218349 1.466277 0.954857 2.140426 -1.097670 -1.390302 0.000000 0.000000 0.000000 6.218349 1.466277 0.954857 1.519701 -9.275785 -14.847873 -22.884195 0.887896 -69.845187 0.000003 -31.267377 0.000013 0.000000 0.000000 0.000000 6.218349 1.466277 0.954857 4.169610 16.815092 6.523476 -13.924118 -5.585394 64.641279 0.000002 22.704515 -0.000004 0.000000 0.000000 0.000000 
-0.411939 77.894279 2.921076 0.000000 0.000000 0.000000 5.603876 -6.364061 2.667978 -43.262193 12.071295 11.231339 45.262444 5.935326 -1.651977 6.289600 -0.025954 -3.735575 0.000000 0.000000 0.000000 5.603876 -6.364061 2.667978 -29.677636 -4.461297 0.857357 42.708210 -4.826030 -0.950442 -20.936663 -1.896230 -2.226069 0.000000 0.000000 0.000000 5.603876 -6.364061 2.667978 0.000000 -0.000001 0.000000 8.615900 3.855153 4.600830 6.152342 1.675971 0.945557 0.000000 0.000000 0.000000 6.154066 1.528422 0.915126 2.140432 -1.191140 -1.403665 0.000000 0.000000 0.000000 6.154066 1.528422 0.915126 1.473381 -9.118876 -14.822567 -22.468001 0.705277 -69.775491 0.000015 -31.314300 0.000030 0.000000 0.000000 0.000000 6.154066 1.528422 0.915126 4.017050 16.564336 6.747757 -13.534220 -6.383722 64.297365 -0.000001 22.919326 0.000004 0.000000 0.000000 0.000000 
-0.474116 78.035675 3.404381 0.000000 0.000000 0.000000 5.627372 -6.297484 3.134776 -43.300578 11.834320 10.373323 41.051213 5.222116 -1.657121 7.376095 0.043384 -5.454487 0.000000 0.000000 0.000000 5.627372 -6.297484 3.134776 -29.119931 -4.231020 0.382730 42.405185 -5.192878 -0.944906 -21.248512 -1.531023 -1.977175 0.000000 0.000000 0.000000 5.627372 -6.297484 3.134776 0.000000 0.000000 0.000000 8.498580 3.928192 4.466472 6.080537 1.760887 0.914892 0.000000 0.000000 0.000000 6.083303 1.595058 0.870178 2.140428 -1.284177 -1.419107 0.000000 0.000000 0.000000 6.083303 1.595058 0.870178 1.424250 -8.948056 -14.793869 -22.022934 0.531219 -69.629776 -0.000002 -31.355838 0.000000 0.000000 0.000000 0.000000 6.083303 1.595058 0.870178 3.854863 16.293281 6.987752 -13.103446 -7.147923 63.979181 -0.000000 23.163178 -0.000009 0.000000 0.000000 0.000000 
